<svg width="108" height="123" viewBox="0 0 108 123" fill="none" xmlns="http://www.w3.org/2000/svg">
<path d="M81.6337 26.4071C92.8817 32.3094 97.2152 46.2124 91.3129 57.4604L81.3772 76.395C75.4749 87.643 61.5718 91.9766 50.3238 86.0743L20.3662 70.3543C9.11817 64.452 4.78461 50.5489 10.6869 39.3009L20.6227 20.3663C26.525 9.11828 40.4281 4.78474 51.6761 10.687L81.6337 26.4071Z" fill="#FFB947"/>
<path d="M93.3468 43.8241C89.7026 58.4676 79.8914 84.1903 75.6866 90.077C66.4625 90.077 65.2647 76.7606 66.9528 57.5963C66.9529 46.6671 68.1696 27.0823 63.9131 17.3337C79.0504 24.4819 93.3468 27.438 93.3468 43.8241Z" fill="#D9D9D9"/>
<rect x="108" y="43.9474" width="58.5689" height="6.82428" rx="3.41214" transform="rotate(115.697 108 43.9474)" fill="#A13304"/>
<rect x="98.937" y="41.6846" width="54.4054" height="0.307905" rx="0.153952" transform="rotate(117.555 98.937 41.6846)" fill="#A13304"/>
<path d="M68.5382 86.2927L62.231 69.053L65.5948 77.4626L66.9311 79.3716C67.9977 80.8954 69.2621 82.2707 70.6911 83.4615L71.0611 83.7698L71.283 83.9178C73.5086 85.4015 74.8454 87.8994 74.8454 90.5742V91.3385V93.8614V96.3843C74.8454 97.2252 74.8454 97.6457 75.2659 99.7481C75.3021 99.9291 75.3679 100.17 75.4557 100.447C76.3228 103.183 77.8512 105.822 78.7588 108.545C78.9526 109.126 79.2034 109.687 79.5074 110.219L80.0077 111.095C80.4824 111.926 80.7321 112.866 80.7321 113.823V114.612C80.7321 115.341 80.5339 116.057 80.1588 116.682L79.7634 117.341C79.569 117.665 79.3356 117.964 79.0684 118.231L79.0556 118.244C78.772 118.527 78.4687 118.791 78.148 119.031L77.8301 119.269C77.2519 119.703 76.5706 119.978 75.8534 120.068L75.3664 120.129C74.1956 120.275 73.0068 120.135 71.902 119.721L71.8704 119.709C70.8039 119.309 69.9108 118.549 69.3456 117.56C68.8126 116.627 68.4696 115.598 68.3363 114.532L68.1177 112.783V109.84L68.3616 107.889C68.4791 106.948 68.675 106.02 68.9473 105.112L69.7996 102.271L70.5845 100.178C70.8997 99.3376 71.0611 98.4474 71.0611 97.55V92.2672C71.0611 91.9358 70.963 91.6118 70.7791 91.3361L70.7533 91.2973C70.4039 90.7732 69.9237 90.3493 69.3603 90.0676C68.8416 89.8083 68.4716 89.3239 68.3579 88.7552L68.2201 88.066C68.153 87.7306 68.1746 87.3835 68.2827 87.059L68.5382 86.2927Z" fill="#FFB947" stroke="#FFB947"/>
<rect x="102.057" y="41.3831" width="58.5689" height="3.7956" rx="1.8978" transform="rotate(117.688 102.057 41.3831)" fill="#C2C2C2"/>
<rect x="99.7222" y="39.8478" width="58.5689" height="5.90678" rx="2.95339" transform="rotate(117.688 99.7222 39.8478)" fill="#A6A6A6"/>
<ellipse cx="74.8459" cy="114.885" rx="6.7277" ry="7.14818" fill="#FFB947"/>
</svg>
